<?xml version="1.0" encoding="UTF-8" standalone="no"?>
<!-- Created with Inkscape (http://www.inkscape.org/) -->

<svg
   xmlns:dc="http://purl.org/dc/elements/1.1/"
   xmlns:cc="http://creativecommons.org/ns#"
   xmlns:rdf="http://www.w3.org/1999/02/22-rdf-syntax-ns#"
   xmlns:svg="http://www.w3.org/2000/svg"
   xmlns="http://www.w3.org/2000/svg"
   xmlns:sodipodi="http://sodipodi.sourceforge.net/DTD/sodipodi-0.dtd"
   xmlns:inkscape="http://www.inkscape.org/namespaces/inkscape"
   version="1.1"
   id="svg815"
   width="435"
   height="356"
   viewBox="0 0 435 356"
   sodipodi:docname="Logo.svg"
   inkscape:version="0.92.4 (5da689c313, 2019-01-14)">
  <metadata
     id="metadata821">
    <rdf:RDF>
      <cc:Work
         rdf:about="">
        <dc:format>image/svg+xml</dc:format>
        <dc:type
           rdf:resource="http://purl.org/dc/dcmitype/StillImage" />
        <dc:title></dc:title>
      </cc:Work>
    </rdf:RDF>
  </metadata>
  <defs
     id="defs819" />
  <sodipodi:namedview
     pagecolor="#ffffff"
     bordercolor="#666666"
     borderopacity="1"
     objecttolerance="10"
     gridtolerance="10"
     guidetolerance="10"
     inkscape:pageopacity="0"
     inkscape:pageshadow="2"
     inkscape:window-width="2560"
     inkscape:window-height="1377"
     id="namedview817"
     showgrid="false"
     inkscape:zoom="2.399396"
     inkscape:cx="79.70692"
     inkscape:cy="172.58461"
     inkscape:window-x="1912"
     inkscape:window-y="-8"
     inkscape:window-maximized="1"
     inkscape:current-layer="svg815" />
  <path
     id="path825"
     style="fill:#000000"
     d="m 118.27734,13.248047 -7.35937,3.0625 c -21.106129,8.786505 -37.394106,37.506038 -40.515626,71.4375 -0.50597,5.5 -0.934625,62.107423 -0.953125,125.794923 l -0.0332,115.79492 -0.05078,5.10742 4.958985,-0.19726 H 199.73438 c 139.06285,-0.41189 50.40998,0.17334 130.58007,-0.42578 l 0.34375,-71.89258 0.25782,-68.18164 6.5,-0.62891 c 11.94169,-1.15549 19.35194,-5.08305 28.5664,-15.14062 15.85106,-17.30141 24.48426,-43.61647 24.50196,-74.6836 0.0177,-31.047219 -8.63748,-57.461284 -24.50196,-74.777342 -6.78062,-7.401045 -11.51896,-10.67286 -19.36719,-13.373047 -5.2837,-1.817857 -10.14089,-1.896484 -116.92578,-1.896484 z m 38.97071,12.958984 90.33398,0.269531 90.33399,0.271485 6.3164,2.916015 c 22.32762,10.308925 36.55694,51.996007 31.11133,91.148438 -3.51402,25.26487 -15.56712,47.98625 -29.29687,55.22852 l -5.13086,2.70703 -91.65235,0.5 c -99.23788,0.54139 -93.72908,0.82205 -87.88281,-4.46875 3.52436,-3.1895 10.69717,-15.48348 13.89648,-23.81641 6.17039,-16.07141 7.60352,-25.06208 7.60352,-47.71484 0,-18.005144 -0.28308,-21.697204 -2.33398,-30.337894 -4.14073,-17.445421 -10.36745,-30.766781 -19.83399,-42.433594 z m -30.11914,0.703125 c 3.83368,0.02584 7.58144,1.399434 12.99609,4.476563 6.75793,3.840504 12.10437,10.007895 17.25,19.898437 5.35329,10.289704 7.6133,17.037991 10.03906,29.962891 5.58579,29.762133 -0.77288,62.970583 -15.97851,83.445313 -4.45086,5.99318 -6.03805,7.42431 -12.10547,10.91406 -4.99957,2.87555 -14.08735,4.15016 -19.55664,2.74414 -15.19999,-3.90755 -27.704947,-22.89567 -33.990237,-51.61328 -2.56247,-11.70798 -2.348954,-36.982943 0.410156,-48.490233 7.42022,-30.947135 17.944751,-45.941905 35.490231,-50.570313 1.94321,-0.512608 3.70273,-0.779324 5.44532,-0.767578 z m -0.64649,22.691406 c -8.97614,0.0084 -17.57049,6.445135 -23.0332,17.646485 -1.20702,2.475002 -2.59399,5.258877 -3.08203,6.185547 -1.82253,3.46054 -4.951174,21.893731 -4.951174,29.169926 0,11.32208 3.493247,27.71179 7.734374,36.28906 4.12896,8.35042 10.27207,14.8847 15.87305,16.88086 8.53432,3.04159 15.78963,1.13105 23.02734,-6.0625 24.88094,-24.72915 17.75632,-91.818422 -10.56055,-99.443362 -1.67099,-0.449951 -3.34556,-0.667574 -5.00781,-0.666016 z m -0.1582,14.027344 c 0.77294,-0.02063 1.59159,0.343818 3.00781,1.076172 10.15687,5.252317 16.28881,35.733812 11.19922,55.666012 -3.01141,11.79352 -6.45599,18.39884 -10.80078,20.71289 -3.53581,1.88318 -5.73821,1.36639 -8.88281,-2.08593 -6.91615,-7.59294 -9.8006,-18.03644 -9.875,-35.75 -0.0597,-14.228694 0.87114,-19.480943 5.05273,-28.500003 2.75269,-5.93714 4.0049,-7.574291 7.56445,-9.890625 1.23413,-0.803095 1.96144,-1.207885 2.73438,-1.228516 z M 83.416016,163.91602 87.501953,169.75 c 5.87729,8.39011 14.425077,16.11267 21.914067,19.79883 l 6.5,3.19922 c 0.004,-0.001 0.008,-0.003 0.0117,-0.004 0.0121,-0.003 0.034,0.002 0.0469,0 0.0196,-6e-5 0.039,-6.2e-4 0.0586,0 0.0283,8.7e-4 0.0558,-0.006 0.084,0.002 0.002,6.5e-4 0.004,0.001 0.006,0.002 l 100.04297,0.26367 100.25,0.26367 v 63.48633 63.48633 h -116.5 -116.500004 v -78.16602 z" />
</svg>
