<svg id="Layer_5" enable-background="new 0 0 64 64" height="512" viewBox="0 0 64 64" width="512" xmlns="http://www.w3.org/2000/svg"><path d="m61 16h-.132c-.446-7.128-2.209-15-5.868-15h-44c-3.38 0-5.372 7.039-5.871 15h-2.129c-1.103 0-2 .897-2 2v4c0 1.103.897 2 2 2h2v39h46v-24h4c3.659 0 5.422-7.872 5.868-15h.132c1.103 0 2-.897 2-2v-4c0-1.103-.897-2-2-2zm-58 6v-4h2.034c-.021.665-.034 1.332-.034 2v2zm46 39h-2v-4h-2v4h-2v-4h-2v4h-2v-4h-2v4h-2v-4h-2v4h-2v-4h-2v4h-2v-4h-2v4h-2v-4h-2v4h-2v-4h-2v4h-2v-4h-2v4h-2v-4h-2v4h-2v-41c0-11 2.643-17 4-17h41.177c-2.091 3.286-3.177 10.164-3.177 17zm2-26.481c.347.965.741 1.796 1.177 2.481h-1.177zm4 2.481c-1.357 0-4-6-4-17s2.643-17 4-17c1.064 0 3.29 3.95 3.862 13h-4.862v8h4.862c-.572 9.05-2.798 13-3.862 13zm1-15v-4h5l.002 4z"/><path d="m45 37h2v2h-2z"/><path d="m41 37h2v2h-2z"/><path d="m37 37h2v2h-2z"/><path d="m33 37h2v2h-2z"/><path d="m29 37h2v2h-2z"/><path d="m25 37h2v2h-2z"/><path d="m21 37h2v2h-2z"/><path d="m17 37h2v2h-2z"/><path d="m13 37h2v2h-2z"/><path d="m9 37h2v2h-2z"/></svg>