<?xml version="1.0"?>
<svg xmlns="http://www.w3.org/2000/svg" viewBox="0 0 64 64" width="512" height="512"><g id="Outline"><g><path d="M17,26a8.955,8.955,0,0,1,4.959,1.494,1,1,0,0,0,1.105-1.668,11.008,11.008,0,1,0,3.11,3.11,1,1,0,1,0-1.667,1.105A8.987,8.987,0,0,1,22,42.478V40a3.988,3.988,0,0,0-1.965-3.425A3.96,3.96,0,0,0,21,34a4,4,0,0,0-8,0,3.96,3.96,0,0,0,.965,2.575A3.988,3.988,0,0,0,12,40a1,1,0,0,0,2,0,2,2,0,0,1,2-2h2a2,2,0,0,1,2,2v3.475A9,9,0,1,1,17,26Zm0,6a2,2,0,1,1-2,2A2,2,0,0,1,17,32Z"/><path d="M33,41h4a1,1,0,0,0,1-1V29a1,1,0,0,0-1-1H33a1,1,0,0,0-1,1V40A1,1,0,0,0,33,41Zm1-11h2v9H34Z"/><path d="M57.871,7.776a3.068,3.068,0,1,0-1.487-1.338l-4.255,4.786a2.971,2.971,0,0,0-3.3.716l-3.852-1.711c.006-.077.023-.151.023-.229a3,3,0,0,0-6,0,2.969,2.969,0,0,0,.459,1.576l-4.482,5.6A2.962,2.962,0,0,0,34,17a3,3,0,0,0-3,3,2.968,2.968,0,0,0,.19,1.018l-3.834,3.157A14.981,14.981,0,0,0,5,43.973a1,1,0,1,0,1.6-1.2A12.88,12.88,0,0,1,4,35,13,13,0,1,1,17,48a12.866,12.866,0,0,1-7.773-2.6,1,1,0,0,0-1.2,1.6,14.933,14.933,0,0,0,17.237.5l3.967,3.967a3,3,0,0,0,.577,3.406l1.413,1.414h0l4.242,4.242a5,5,0,1,0,7.072-7.07l-4.243-4.243h0l-1.414-1.413a3.076,3.076,0,0,0-3.4-.568l-3.976-3.976a14.935,14.935,0,0,0-.8-17.613l3.751-3.089A2.971,2.971,0,0,0,34,23a3,3,0,0,0,3-3,2.969,2.969,0,0,0-.459-1.576l4.482-5.6a2.92,2.92,0,0,0,3.148-.763l3.852,1.711c-.006.077-.023.151-.023.229a3,3,0,0,0,6,0,2.96,2.96,0,0,0-.384-1.438ZM42,57a3,3,0,0,1-5.122,2.121l-3.535-3.535,4.243-4.243,3.536,3.536A2.979,2.979,0,0,1,42,57Zm-7.243-8.071a.989.989,0,0,1,.707.293l.708.707-4.243,4.243-.707-.707a1,1,0,0,1,0-1.415l2.829-2.828A.985.985,0,0,1,34.757,48.929Zm-2.828-.414-1.414,1.414-3.654-3.654a15.218,15.218,0,0,0,1.414-1.414ZM34,21a1,1,0,1,1,1-1A1,1,0,0,1,34,21Zm8-10a1,1,0,1,1,1-1A1,1,0,0,1,42,11ZM59,4a1,1,0,1,1-1,1A1,1,0,0,1,59,4ZM51,15a1,1,0,1,1,1-1A1,1,0,0,1,51,15Z"/><path d="M7,10h3v7a1,1,0,0,0,1,1h6a1,1,0,0,0,0-2H12V9a1,1,0,0,0-1-1h-.7L16,4.2,21.7,8H21a1,1,0,0,0-1,1v8a1,1,0,0,0,2,0V10h3a1,1,0,0,0,.555-1.832l-9-6a1,1,0,0,0-1.11,0l-9,6A1,1,0,0,0,7,10Z"/><path d="M61,13H57a1,1,0,0,0-1,1V40a1,1,0,0,0,1,1h4a1,1,0,0,0,1-1V37a1,1,0,0,0-2,0v2H58V15h2V33a1,1,0,0,0,2,0V14A1,1,0,0,0,61,13Z"/><path d="M53,23H49a1,1,0,0,0-1,1V40a1,1,0,0,0,1,1h4a1,1,0,0,0,1-1V38a1,1,0,0,0-2,0v1H50V25h2v9a1,1,0,0,0,2,0V24A1,1,0,0,0,53,23Z"/><path d="M45,19H41a1,1,0,0,0-1,1V40a1,1,0,0,0,1,1h4a1,1,0,0,0,1-1V37a1,1,0,0,0-2,0v2H42V21h2V33a1,1,0,0,0,2,0V20A1,1,0,0,0,45,19Z"/></g></g></svg>
